<?xml version="1.0" standalone="no"?>
<!DOCTYPE svg PUBLIC "-//W3C//DTD SVG 1.1//EN" "http://www.w3.org/Graphics/SVG/1.1/DTD/svg11.dtd" >
<svg xmlns="http://www.w3.org/2000/svg">
<metadata>Generated by IcoMoon</metadata>
<defs>
<font id="icomoon" horiz-adv-x="1024">
<font-face units-per-em="1024" ascent="960" descent="-64" />
<missing-glyph horiz-adv-x="1024" />
<glyph unicode="&#x20;" horiz-adv-x="512" d="" />
<glyph unicode="&#xe900;" glyph-name="arrow-down" d="M707.84 593.493l-195.84-195.413-195.84 195.413-60.16-60.16 256-256 256 256z" />
<glyph unicode="&#xe901;" glyph-name="arrow-left" d="M353.92 631.253l195.413-195.84-195.413-195.84 60.16-60.16 256 256-256 256z" />
<glyph unicode="&#xe902;" glyph-name="arrow-right" d="M670.080 631.253l-195.413-195.84 195.413-195.84-60.16-60.16-256 256 256 256z" />
<glyph unicode="&#xe903;" glyph-name="arrow-up" d="M707.84 277.333l-195.84 195.413-195.84-195.413-60.16 60.16 256 256 256-256z" />
<glyph unicode="&#xe904;" glyph-name="bell" d="M914.806 298.122c-33.978 33.57-69.092 68.286-69.092 232.166 0 166.052-121.916 304.148-280.934 329.524 7.325 10.645 11.238 23.266 11.22 36.188 0 35.346-28.654 64-64 64s-64-28.654-64-64c-0.018-12.922 3.894-25.544 11.218-36.19-159.016-25.376-280.932-163.472-280.932-329.524 0-163.866-35.102-198.584-69.086-232.156-96.192-95.012-25.748-234.13 88.638-234.13h186.162c0-70.692 57.308-128 128-128s128 57.308 128 128h186.16c114.38 0 184.83 139.166 88.646 234.122v0zM512 16c-26.468 0-48 21.532-48 48h96c0-26.468-21.532-48-48-48zM826.184 160h-628.384c-33.524 0-50.27 40.78-26.668 64.382 57.17 57.17 103.154 111.448 103.154 305.904 0 131.076 106.638 237.714 237.714 237.714s237.714-106.638 237.714-237.714c0-195.3 46.442-249.148 103.136-305.904 23.706-23.704 6.716-64.382-26.666-64.382z" />
<glyph unicode="&#xe905;" glyph-name="cancel" d="M512 874.667c-235.947 0-426.667-190.72-426.667-426.667s190.72-426.667 426.667-426.667c235.947 0 426.667 190.72 426.667 426.667s-190.72 426.667-426.667 426.667zM725.333 294.827l-60.16-60.16-153.173 153.173-153.173-153.173-60.16 60.16 153.173 153.173-153.173 153.173 60.16 60.16 153.173-153.173 153.173 153.173 60.16-60.16-153.173-153.173 153.173-153.173z" />
<glyph unicode="&#xe906;" glyph-name="chart-aera" d="M1000 160c13.2 0 24-10.8 24-24v-48c0-13.2-10.8-24-24-24h-976c-13.2 0-24 10.8-24 24v720c0 13.2 10.8 24 24 24h48c13.2 0 24-10.8 24-24v-648h904zM744 702.6l-168-112c-106.133 49.244-162.867 77.533-170.2 84.867-11 11-29.6 8.8-37.6-4.6l-176.2-222.867v-192h768l-180.6 436.2c-6 13.8-23 18.8-35.4 10.4zM288 421.4l117.333 133.267 158.467-87.667c143.6 95.8 16.4 10.8 161.4 107.6l89.2-222.6h-526.4v69.4z" />
<glyph unicode="&#xe907;" glyph-name="chart-bar" d="M793.6 256h44.8c12.8 0 25.6 12.8 25.6 25.6v460.8c0 12.8-12.8 25.6-25.6 25.6h-44.8c-12.8 0-25.6-12.8-25.6-25.6v-460.8c0-12.8 12.8-25.6 25.6-25.6zM409.6 256h44.8c12.8 0 25.6 7.314 25.6 14.629v226.743c0 7.314-12.8 14.629-25.6 14.629h-44.8c-12.8 0-25.6-7.314-25.6-14.629v-226.743c0-7.314 12.8-14.629 25.6-14.629v0zM601.6 256h44.8c12.8 0 25.6 12.8 25.6 25.6v268.8c0 12.8-12.8 25.6-25.6 25.6h-44.8c-12.8 0-25.6-12.8-25.6-25.6v-268.8c0-12.8 12.8-25.6 25.6-25.6v0zM992 160h-896v640c0 17.68-14.32 32-32 32h-32c-17.68 0-32-14.32-32-32v-672c0-35.34 28.66-64 64-64h928c17.68 0 32 14.32 32 32v32c0 17.68-14.32 32-32 32zM217.6 256h44.8c12.8 0 25.6 12.8 25.6 25.6v140.8c0 12.8-12.8 25.6-25.6 25.6h-44.8c-12.8 0-25.6-12.8-25.6-25.6v-140.8c0-12.8 12.8-25.6 25.6-25.6v0z" />
<glyph unicode="&#xe908;" glyph-name="chart-pie-alt" d="M922.571 384h-474.573v474.58c0 17.66-14.36 32.42-31.48 32.42-1.4 0-2.8-0.1-4.22-0.3-238.136-33.64-420.214-241.56-412.034-490.84 8.14-248.060 215.557-455.46 463.593-463.6 5.38-0.18 10.78-0.26 16.14-0.26 242.076 0 441.773 179.32 474.693 412.32 2.66 18.9-13.040 35.68-32.12 35.68zM479.998 32c-4.3 0-8.66 0.080-13 0.22-197.957 6.5-364.295 172.84-370.794 370.8-5.58 170.54 100.518 320.28 255.796 374.7v-489.72h489.553c-53.259-150.12-197.437-256-361.555-256zM577.596 959.92c-0.7 0.060-1.4 0.080-2.080 0.080-17.32 0-31.52-14.88-31.52-32.46v-447.54h447.533c18.28 0 33.639 15.38 32.4 33.6-16.5 238.92-207.417 429.84-446.333 446.32z" />
<glyph unicode="&#xe909;" glyph-name="check-box-blank" d="M810.667 746.667v-597.333h-597.333v597.333h597.333zM810.667 832h-597.333c-46.933 0-85.333-38.4-85.333-85.333v-597.333c0-46.933 38.4-85.333 85.333-85.333h597.333c46.933 0 85.333 38.4 85.333 85.333v597.333c0 46.933-38.4 85.333-85.333 85.333z" />
<glyph unicode="&#xe90a;" glyph-name="check-box" d="M810.667 832h-597.333c-47.36 0-85.333-38.4-85.333-85.333v-597.333c0-46.933 37.973-85.333 85.333-85.333h597.333c47.36 0 85.333 38.4 85.333 85.333v597.333c0 46.933-37.973 85.333-85.333 85.333zM426.667 234.667l-213.333 213.333 60.16 60.16 153.173-152.747 323.84 323.84 60.16-60.587-384-384z" />
<glyph unicode="&#xe90b;" glyph-name="clock" d="M512 960c-282.839 0-512-229.161-512-512s229.161-512 512-512c282.839 0 512 229.161 512 512s-229.161 512-512 512zM512 35.097c-228.129 0-412.903 184.774-412.903 412.903s184.774 412.903 412.903 412.903c228.129 0 412.903-184.774 412.903-412.903s-184.774-412.903-412.903-412.903zM639.587 250.632l-175.277 127.381c-6.4 4.748-10.116 12.181-10.116 20.026v338.994c0 13.626 11.148 24.774 24.774 24.774h66.065c13.626 0 24.774-11.148 24.774-24.774v-292.542l137.91-100.335c11.148-8.052 13.419-23.535 5.368-34.684l-38.813-53.471c-8.052-10.942-23.535-13.419-34.684-5.368z" />
<glyph unicode="&#xe90c;" glyph-name="close" d="M626.23 448l258.532 258.524c14.952 14.952 14.952 39.215 0 54.191l-60.073 60.071c-14.952 14.952-39.217 14.952-54.193 0l-258.508-258.548-258.532 258.524c-14.952 14.952-39.217 14.952-54.193 0l-60.049-60.047c-14.952-14.952-14.952-39.215 0-54.191l258.532-258.524-258.532-258.524c-14.952-14.952-14.952-39.215 0-54.191l60.073-60.071c14.952-14.952 39.217-14.952 54.193 0l258.508 258.548 258.532-258.524c14.952-14.952 39.217-14.952 54.193 0l60.073 60.071c14.952 14.952 14.952 39.215 0 54.191l-258.556 258.5z" />
<glyph unicode="&#xe90d;" glyph-name="contact" d="M910.222 803.556h-256c0 62.838-50.94 113.778-113.778 113.778h-56.889c-62.838 0-113.778-50.94-113.778-113.778v0 0h-256c-62.756 0-113.778-51.022-113.778-113.778v-568.889c0-62.756 51.022-113.778 113.778-113.778h796.444c62.756 0 113.778 51.022 113.778 113.778v568.889c0 62.756-51.022 113.778-113.778 113.778zM512 832c31.419 0 56.889-25.47 56.889-56.889s-25.47-56.889-56.889-56.889c-31.419 0-56.889 25.47-56.889 56.889s25.47 56.889 56.889 56.889zM938.667 120.889c0-15.644-12.8-28.444-28.444-28.444h-200.533c0.356 1.956 1.422 3.733 1.422 5.689v34.133c0 56.533-53.511 102.4-119.467 102.4-19.2 0-33.244-14.222-79.644-14.222-47.822 0-59.378 14.222-79.644 14.222-65.956 0-119.467-45.867-119.467-102.4v-34.133c0-1.956 0.889-3.733 1.422-5.689h-200.533c-15.644 0-28.444 12.8-28.444 28.444v568.889c0 15.644 12.8 28.444 28.444 28.444h256c0-47.128 38.205-85.333 85.333-85.333h113.778c47.128 0 85.333 38.205 85.333 85.333v0 0h256c15.644 0 28.444-12.8 28.444-28.444v-568.889zM512 519.111c-62.756 0-113.778-51.022-113.778-113.778s51.022-113.778 113.778-113.778c62.756 0 113.778 51.022 113.778 113.778s-51.022 113.778-113.778 113.778z" />
<glyph unicode="&#xe90e;" glyph-name="dashboard" d="M950.857 960h-877.714c-40.396 0-73.143-32.747-73.143-73.143v-877.714c0-40.396 32.747-73.143 73.143-73.143h877.714c40.396 0 73.143 32.747 73.143 73.143v877.714c0 40.396-32.747 73.143-73.143 73.143zM914.286 850.286v-347.429h-347.429v347.429h347.429zM457.143 850.286v-347.429h-347.429v347.429h347.429zM109.714 45.714v347.429h347.429v-347.429h-347.429zM566.857 45.714v347.429h347.429v-347.429h-347.429z" />
<glyph unicode="&#xe90f;" glyph-name="drop_down" d="M298.667 533.333l213.333-213.333 213.333 213.333z" />
<glyph unicode="&#xe910;" glyph-name="export" d="M1017.404 421.227l-127.591 128.551c-13.422 13.511-36.48 4.018-36.48-15.022v-86.898h-170.667v234.844c0 22.578-9.191 44.444-25.191 60.427l-149.138 149.138c-16 16-37.689 25.067-60.249 25.067h-362.773c-47.093-0.178-85.316-38.4-85.316-85.493v-739.413c0-47.093 38.222-85.316 85.316-85.316h511.893c47.111 0 85.458 38.222 85.458 85.316v184.782h-85.333v-184.782h-512.018v739.413l362.684 0.16 149.333-149.333v-234.791h-291.556c-11.787 0-21.333-9.547-21.333-21.333v-42.667c0-11.787 9.547-21.333 21.333-21.333h547.556v-86.898c0-19.040 23.058-28.533 36.48-15.022l127.591 128.551c8.8 8.871 8.8 23.182 0 32.053z" />
<glyph unicode="&#xe911;" glyph-name="file-alt" d="M704 464v-56c0-13.2-10.8-24-24-24h-336c-13.2 0-24 10.8-24 24v56c0 13.2 10.8 24 24 24h336c13.2 0 24-10.8 24-24zM680 320h-336c-13.2 0-24-10.8-24-24v-56c0-13.2 10.8-24 24-24h336c13.2 0 24 10.8 24 24v56c0 13.2-10.8 24-24 24zM896 696.2v-664.2c0-53-43-96-96-96h-576c-53 0-96 43-96 96v832c0 53 43 96 96 96h408.2c25.4 0 49.8-10.2 67.8-28.2l167.8-167.8c18-17.8 28.2-42.4 28.2-67.8zM640 856.2v-152.2h152.2l-152.2 152.2zM800 32v576h-208c-26.6 0-48 21.4-48 48v208h-320v-832h576z" />
<glyph unicode="&#xe912;" glyph-name="filter_list" d="M426.667 192h170.667v85.333h-170.667v-85.333zM128 704v-85.333h768v85.333h-768zM256 405.333h512v85.333h-512v-85.333z" />
<glyph unicode="&#xe913;" glyph-name="finger-pointer" d="M275.2 793.6v-172.354c-14.756 2.905-29.761 4.363-44.8 4.352-95.828 0-166.4-70.144-166.4-184 0-90.628 97.074-114.004 157.568-151.414 24.826-15.47 46.634-33.988 66.506-51.702l0.292-0.262 0.296-0.258c34.952-30.638 47.338-46.434 47.338-60.362v-5.358c-9.904-11.494-16-27.072-16-44.24v-128c0-35.346 25.788-64 57.6-64h460.8c31.812 0 57.6 28.654 57.6 64v128c0 17.168-6.096 32.746-16 44.24v5.358c0 57.376 80 134.274 80 254.4v42.598c0 125.084-77.316 197.6-182.29 199.88-35.626 24.964-81.57 36.982-125.582 31.97-13.983 7.123-28.809 12.452-44.128 15.858v71.294c0 90.87-75.168 166.4-166.4 166.4-90.198 0-166.4-76.202-166.4-166.4zM512 793.6v-182.052c29.338 25.674 85.65 28.83 122.1-9.9 39.292 22.454 91.248 3.374 107.25-25.85 78.256 13.048 122.65-20.152 122.65-101.2v-42.598c0-90.982-71.826-154.42-79.352-240h-353.506c-5.928 50.478-42.444 85.932-79.192 118.15-25.3 22.55-50.6 43.45-79.75 61.598-46.776 28.962-112.2 52.264-112.2 69.852 0 46.75 17.6 88 70.4 88 70.4 0 106.15-52.8 140.8-52.8v316.8c0 36.85 33 70.4 70.4 70.4 37.95 0 70.4-32.45 70.4-70.4zM768 112c26.51 0 48-21.49 48-48s-21.49-48-48-48c-26.51 0-48 21.49-48 48s21.49 48 48 48z" />
<glyph unicode="&#xe914;" glyph-name="folder" d="M928 704h-384l-128 128h-320c-53.020 0-96-42.98-96-96v-576c0-53.020 42.98-96 96-96h832c53.020 0 96 42.98 96 96v448c0 53.020-42.98 96-96 96zM916 160h-808c-6.628 0-12 5.356-12 11.984v552.032c0 3.181 1.265 6.231 3.516 8.479s5.303 3.505 8.484 3.505h268.236l128-128h411.764c6.627 0 12-5.373 12-12v-424c0-6.627-5.373-12-12-12v0z" />
<glyph unicode="&#xe915;" glyph-name="grade" d="M512 223.147l263.68-159.147-69.973 299.947 232.96 201.813-306.773 26.027-119.893 282.88-119.893-282.88-306.773-26.027 232.96-201.813-69.973-299.947z" />
<glyph unicode="&#xe916;" glyph-name="hand-paper" d="M808.561 735.156v21.608c0 87.054-80.882 153.083-165.754 130.836-51.158 98.807-187.813 94.715-235.504-1.491-82.399 21.081-164.489-41.774-164.489-129.713v-251.768c-39.828 14.825-86.447 10.116-123.924-17.707-58.596-43.507-71.448-126.419-29.043-185.943l239.47-336.173c11.986-16.823 31.366-26.812 52.022-26.812h444.925c29.75 0 55.561 20.538 62.242 49.529l60.25 261.405c6.885 29.896 10.37 60.475 10.37 91.154v262.615c0 81.082-70.908 143.703-150.566 132.459zM863.308 340.084c0-23.416-2.663-46.847-7.915-69.636l-54.543-236.64h-403.053l-229.943 322.764c-28.822 40.461 29.987 85.385 58.673 45.122l54.15-76.010c17.955-25.203 57.949-12.549 57.949 18.53v412.183c0 51.19 72.999 49.523 72.999-1.379v-306.020c0-17.64 14.298-31.938 31.938-31.938h13.685c17.64 0 31.938 14.298 31.938 31.938v377.263c0 51.226 72.999 49.523 72.999-1.379v-375.884c0-17.64 14.298-31.938 31.938-31.938h13.685c17.64 0 31.938 14.298 31.938 31.938v309.146c0 51.244 72.997 49.523 72.997-1.379v-307.767c0-17.64 14.298-31.938 31.938-31.938h13.687c17.64 0 31.938 14.298 31.938 31.938v152.321c0 52.382 73.001 51.18 73.001 1.379v-262.613z" />
<glyph unicode="&#xe917;" glyph-name="heart" d="M452.461 41.891l-319.612 313.794c-13.77 12.8-132.848 127.030-132.848 269.188 0 175.903 110.158 292.461 294.788 292.461 80.291 0 156.315-44.218 217.212-96.582 60.703 52.364 136.921 96.582 217.212 96.582 177.842 0 294.788-109.576 294.788-292.461 0-100.848-61.673-200.727-132.073-268.994l-0.776-0.776-319.612-313.212c-33.007-32.582-86.072-32.582-119.079 0zM197.624 422.594l314.376-308.752 313.794 307.782c52.945 52.364 105.115 128.582 105.115 203.248 0 129.745-74.085 199.37-201.697 199.37-91.539 0-179.976-95.612-217.212-132.655-32.97 32.97-124.121 132.655-217.212 132.655-127.806 0-201.697-69.624-201.697-199.37 0-72.339 51.782-153.018 104.533-202.279z" />
<glyph unicode="&#xe918;" glyph-name="help" d="M512-64c282.771 0 512 229.229 512 512s-229.229 512-512 512c-282.771 0-512-229.229-512-512s229.229-512 512-512zM298.533 94.39l110.268 110.268c65.664-27.883 140.651-27.916 206.398 0l110.268-110.268c-130.513-79.11-296.421-79.11-426.934 0zM677.161 448c0-91.070-74.091-165.161-165.161-165.161s-165.161 74.091-165.161 165.161c0 91.070 74.091 165.161 165.161 165.161s165.161-74.091 165.161-165.161zM865.61 234.533l-110.268 110.268c27.881 65.664 27.916 140.651 0 206.398l110.268 110.268c79.11-130.513 79.11-296.421 0-426.934zM725.465 801.61l-110.268-110.268c-65.664 27.881-140.651 27.916-206.396 0l-110.268 110.268c130.513 79.11 296.421 79.11 426.932 0zM158.39 661.467l110.268-110.268c-27.883-65.664-27.916-140.651 0-206.398l-110.268-110.268c-79.11 130.513-79.11 296.421 0 426.934z" />
<glyph unicode="&#xe919;" glyph-name="inbox" d="M1008.716 484.192l-186.809 268.539c-15.952 22.931-42.118 36.603-70.052 36.603h-479.712c-27.934 0-54.1-13.671-70.052-36.603l-186.809-268.539c-9.95-14.303-15.284-31.309-15.284-48.732v-243.46c0-47.129 38.204-85.333 85.333-85.333h853.333c47.129 0 85.333 38.204 85.333 85.333v243.46c0 17.424-5.333 34.428-15.284 48.732zM272.144 704h479.712l138.512-199.111h-217.774l-56.889-113.778h-207.41l-56.889 113.778h-217.774l138.512 199.111zM938.667 192h-853.333v227.556h213.333l56.889-113.778h312.889l56.889 113.778h213.333v-227.556z" />
<glyph unicode="&#xe91a;" glyph-name="info" d="M512 874.667c-235.52 0-426.667-191.147-426.667-426.667s191.147-426.667 426.667-426.667c235.52 0 426.667 191.147 426.667 426.667s-191.147 426.667-426.667 426.667zM554.667 234.667h-85.333v256h85.333v-256zM554.667 576h-85.333v85.333h85.333v-85.333z" />
<glyph unicode="&#xe91b;" glyph-name="menu" d="M128 426.667c0-35.346 28.654-64 64-64h640c35.346 0 64 28.654 64 64s-28.654 64-64 64h-640c-35.346 0-64-28.654-64-64zM128 170.667c0-35.346 28.654-64 64-64h640c35.346 0 64 28.654 64 64s-28.654 64-64 64h-640c-35.346 0-64-28.654-64-64zM128 682.667c0-35.346 28.654-64 64-64h640c35.346 0 64 28.654 64 64s-28.654 64-64 64h-640c-35.346 0-64-28.654-64-64z" />
<glyph unicode="&#xe91c;" glyph-name="more" d="M512 234.667c47.128 0 85.333-38.205 85.333-85.333s-38.205-85.333-85.333-85.333c-47.128 0-85.333 38.205-85.333 85.333s38.205 85.333 85.333 85.333zM512 533.333c47.128 0 85.333-38.205 85.333-85.333s-38.205-85.333-85.333-85.333c-47.128 0-85.333 38.205-85.333 85.333s38.205 85.333 85.333 85.333zM512 832c47.128 0 85.333-38.205 85.333-85.333s-38.205-85.333-85.333-85.333c-47.128 0-85.333 38.205-85.333 85.333s38.205 85.333 85.333 85.333z" />
<glyph unicode="&#xe91d;" glyph-name="power-off" d="M785.548 865.93c143.277-89.397 238.451-246.857 238.451-426.056 0-277.942-228.748-503.262-510.967-503.873-281.806-0.608-512.619 225.524-513.032 503.060-0.206 179.606 94.968 337.472 238.452 426.869 11.974 7.517 27.871 3.657 34.89-8.533l24.361-42.463c6.4-11.175 2.89-25.397-8.052-32.305-114.581-72.33-190.555-198.704-190.555-342.755 0-224.507 184.774-406.348 412.903-406.348s412.903 181.841 412.903 406.348c0 144.050-75.974 270.425-190.555 342.552-10.942 6.908-14.452 21.13-8.052 32.305l24.361 42.463c6.813 12.394 22.916 16.051 34.89 8.736zM561.549 399.239v536.38c0 13.409-11.148 24.381-24.774 24.381h-49.548c-13.626 0-24.774-10.971-24.774-24.381v-536.38c0-13.409 11.148-24.381 24.774-24.381h49.548c13.626 0 24.774 10.971 24.774 24.381z" />
<glyph unicode="&#xe91e;" glyph-name="radio-default" d="M512 874.667c-235.52 0-426.667-191.147-426.667-426.667s191.147-426.667 426.667-426.667c235.52 0 426.667 191.147 426.667 426.667s-191.147 426.667-426.667 426.667zM512 106.667c-188.587 0-341.333 152.747-341.333 341.333s152.747 341.333 341.333 341.333c188.587 0 341.333-152.747 341.333-341.333s-152.747-341.333-341.333-341.333z" />
<glyph unicode="&#xe91f;" glyph-name="radio-selected" d="M512 874.667c-235.52 0-426.667-191.147-426.667-426.667s191.147-426.667 426.667-426.667c235.52 0 426.667 191.147 426.667 426.667s-191.147 426.667-426.667 426.667zM512 106.667c-188.587 0-341.333 152.747-341.333 341.333s152.747 341.333 341.333 341.333c188.587 0 341.333-152.747 341.333-341.333s-152.747-341.333-341.333-341.333zM512 234.667c117.821 0 213.333 95.513 213.333 213.333s-95.513 213.333-213.333 213.333c-117.821 0-213.333-95.513-213.333-213.333s95.513-213.333 213.333-213.333z" />
<glyph unicode="&#xe920;" glyph-name="search" d="M661.333 362.667h-33.707l-11.947 11.52c41.813 48.64 66.987 111.787 66.987 180.48 0 153.173-124.16 277.333-277.333 277.333s-277.333-124.16-277.333-277.333c0-153.173 124.16-277.333 277.333-277.333 68.693 0 131.84 25.173 180.48 66.987l11.52-11.947v-33.707l213.333-212.907 63.573 63.573-212.907 213.333zM405.333 362.667c-106.24 0-192 85.76-192 192s85.76 192 192 192c106.24 0 192-85.76 192-192s-85.76-192-192-192z" />
<glyph unicode="&#xe921;" glyph-name="send" d="M777.009 388.504l-416.594-208.297c-21.076-10.538-46.705-1.995-57.243 19.081-2.962 5.924-4.504 12.457-4.504 19.081v416.594c0 23.564 19.103 42.667 42.667 42.667 6.624 0 13.157-1.542 19.081-4.504l416.594-208.297c21.076-10.538 29.619-36.167 19.081-57.243-4.129-8.257-10.824-14.953-19.081-19.081z" />
<glyph unicode="&#xe922;" glyph-name="sort-down" d="M334.552 576h354.895c31.911 0 47.866-39.691 25.35-62.831l-177.448-182.365c-14.017-14.405-36.682-14.405-50.55 0l-177.597 182.365c-22.516 23.14-6.561 62.831 25.35 62.831z" />
<glyph unicode="&#xe923;" glyph-name="twitter" d="M918.74 667.235c0.65-9.096 0.65-18.194 0.65-27.29 0-277.44-211.166-597.116-597.116-597.116-118.904 0-229.36 34.438-322.274 94.212 16.894-1.948 33.136-2.598 50.68-2.598 98.11 0 188.426 33.136 260.548 89.664-92.264 1.95-169.584 62.376-196.224 145.544 12.996-1.948 25.99-3.248 39.636-3.248 18.842 0 37.686 2.6 55.228 7.146-96.162 19.494-168.286 103.96-168.286 205.97v2.598c27.938-15.594 60.428-25.34 94.862-26.638-56.528 37.686-93.562 102.010-93.562 174.782 0 38.984 10.394 74.72 28.588 105.908 103.31-127.35 258.6-210.516 432.73-219.614-3.248 15.594-5.198 31.836-5.198 48.080 0 115.656 93.564 209.868 209.868 209.868 60.426 0 115.004-25.34 153.34-66.274 47.43 9.096 92.912 26.64 133.198 50.68-15.596-48.732-48.732-89.666-92.264-115.654 42.234 4.546 83.168 16.244 120.852 32.486-28.584-41.582-64.322-78.616-105.256-108.506z" />
</font>
</defs>
</svg>
